<svg xmlns="http://www.w3.org/2000/svg" width="125" height="90">
  <g fill="none" fill-rule="evenodd">
    <rect width="86" height="54" x="16" y="9" fill="#0299BC" rx="1"/>
    <path fill="#FFF" d="M32 2h54v61H32z"/>
    <path fill="#455053" d="M100.353926 6.48931034H87.2146419V1.6708488c0-.79066312-.6407427-1.43236074-1.4323607-1.43236074H31.978992c-.791618 0-1.4323607.64169762-1.4323607 1.43236075v4.81846157H17.4073475C15.5283289 6.48931037 14 8.01763927 14 9.89570292V72.7677454c0 1.8790185 1.5283289 3.4073474 3.4073475 3.4073474h31.2844297v10.959947H35.1815119c-.7909018 0-1.4323607.6416976-1.4323607 1.4323607 0 .7909019.6414589 1.4323608 1.4323607 1.4323608h41.0571884c.7906631 0 1.4323607-.6414589 1.4323607-1.4323608 0-.7906631-.6416976-1.4323607-1.4323607-1.4323607H69.069496v-10.959947h25.8953581c.791618 0 1.4323608-.6407427 1.4323608-1.4323607 0-.7906631-.6407428-1.4323607-1.4323608-1.4323607H17.4073475c-.2945889 0-.542626-.2480372-.542626-.542626V9.89570292c0-.29363395.2480371-.542626.542626-.542626h13.1392838V61.6566844h-9.1890716c-.7916181 0-1.4323608.6405039-1.4323608 1.4323607 0 .7906631.6407427 1.4323607 1.4323608 1.4323607h63.6072944c.791618 0 1.4323608-.6416976 1.4323608-1.4323607 0-.7918568-.6407428-1.4323607-1.4323608-1.4323607H33.4113528V3.10320955h50.9392838V26.1548806c0 .7909019.6407427 1.4323608 1.4323607 1.4323608.7909019 0 1.4323608-.6414589 1.4323608-1.4323608V9.35403183h13.1385679c.294589 0 .542626.24803714.542626.542626V30.3363395c0 .791071.641289 1.4323608 1.43236 1.4323608.791071 0 1.432361-.6412898 1.432361-1.4323608V9.89570292c0-1.87806366-1.528329-3.40639258-3.407347-3.40639258zM51.5564987 87.1350398h14.6492307v-10.959947H51.5564987v10.959947zM3.81212714 80.3746455h2.93281174v-2.9319316H3.81212714m0 10.5572861h2.93281174v-2.9328117H3.81212714m-3.7989242-.8795355h2.9196088v-2.9328117H.01320294m7.61193152 2.9328117h2.93281173v-2.9328117H7.62513445"/>
    <path fill="#455053" d="M13.4900978 84.1876528h13.7840831v-2.9328117H13.4900978M115 22.9328117h2.932812V20H115m0 10.9328117h2.932812V28H115m-4-1.0680685h2.932812V24H111m8 2.9319315h2.932812V24H119M62.1013793 48H39.4323607C38.6407427 48 38 48.6414589 38 49.4323607c0 .7916181.6407427 1.4323608 1.4323607 1.4323608h22.6690186c.7906631 0 1.4323608-.6407427 1.4323608-1.4323608 0-.7909018-.6416977-1.4323607-1.4323608-1.4323607zm8.2791247 0h-1.9481433C67.640504 48 67 48.6414589 67 49.4323607c0 .7916181.640504 1.4323608 1.4323607 1.4323608h1.9481433c.791618 0 1.4323607-.6407427 1.4323607-1.4323608C71.8128647 48.6414589 71.172122 48 70.380504 48zm-8.2791247 6H39.4323607C38.6407427 54 38 54.6414589 38 55.4323607c0 .7916181.6407427 1.4323608 1.4323607 1.4323608h22.6690186c.7906631 0 1.4323608-.6407427 1.4323608-1.4323608 0-.7909018-.6416977-1.4323607-1.4323608-1.4323607zm10.2791247 0h-3.9481433C67.640504 54 67 54.6414589 67 55.4323607c0 .7916181.640504 1.4323608 1.4323607 1.4323608h3.9481433c.791618 0 1.4323607-.6407427 1.4323607-1.4323608C73.8128647 54.6414589 73.172122 54 72.380504 54z"/>
    <path fill="#EDEFF2" d="M59.5 42.751955c10.0297383 0 18.1604477-8.1307094 18.1604477-18.1604478 0-10.0297383-8.1307094 4.1311161-18.1604477 4.1311161-10.0297383 0-18.16044772-14.1608544-18.16044772-4.1311161 0 10.0297384 8.13070942 18.1604478 18.16044772 18.1604478z"/>
    <path fill="#14C3A2" d="M69 38.6428797c-.6189685-5.648695-3.0750109-9.6176217-7.368127-11.9067799-2.7748354 1.1103119-5.1379245 1.1103119-7.0892674 0-4.4385494 3.0006753-6.6319214 6.9696019-6.58011582 11.9067799 2.69464062 2.7340925 6.20074292 3.9729739 10.51830682 3.7166443C62.7983605 42.1031944 66.3047617 40.864313 69 38.6428797z"/>
    <path fill="#455053" d="M47.65115104 39.9551937c3.26243686 2.2022459 7.06945536 3.3661988 11.01021896 3.3661988 3.9399214 0 7.7471084-1.1639529 11.0107243-3.3675463 3.0965188-2.0983156 5.5217855-5.013251 7.0135318-8.4288041l-2.0430657-.8922515c-1.0548007 2.4154969-2.6385177 4.5480067-4.6290287 6.2567097-.5243683-4.0576643-2.3503088-6.7633914-3.9116227-8.387872-.9705783-1.0094891-1.9418304-1.7188097-2.6912408-2.1838855.9923077-1.1363279 1.5581134-2.5991016 1.5581134-4.1407074v-9.9074116l-.1177429-.23548568c-.0737787-.14604155-1.842448-3.58349242-6.1896687-3.58349242-4.3487366 0-6.1174059 3.43745087-6.1903425 3.58349242l-.1179113.2354857v9.90673778c0 1.548849.5541831 3.0037058 1.5601348 4.1400337-.7500842.4652442-1.7218417 1.1750702-2.6930938 2.185233-1.5608085 1.6231331-3.38540144 4.3268389-3.91111733 8.3885458-3.83733858-3.2971365-6.079169-8.1102752-6.079169-13.2301516H39c0 6.5326221 3.2332959 12.6235822 8.65115104 16.2951712zm6.93133076-27.1202695c.3737787-.57574396 1.6219539-2.15491297 4.0782144-2.15491297 2.4621561 0 3.7096575 1.58506457 4.0782145 2.1535654v5.21976417c-2.1911286-.1709713-2.8766985-.8356541-2.9636159-1.1376754v-1.6226278l-5.192813 2.2253229v-4.6834363zm0 7.1095452l3.5135878-1.5055587c.6133072.8014599 1.9094891 1.6647389 4.6428411 1.8490174v1.8891073c0 1.3593487-.6803481 2.6272319-1.8220662 3.3924761-.6665357.4480629-1.44694.6857384-2.2554745.6857384-.8093767 0-1.589781-.2376755-2.2490735-.6810219-.2209995-.150758-.4381247-.3309939-.6341943-.5270635-.7706345-.7586749-1.1956204-1.7779337-1.1956204-2.8701291v-2.232566zm1.2264458 7.8555867c.5474452.2804605 1.1324536.4770354 1.7371701.5850085v4.9190904h2.2298709v-4.9190904c.6040426-.1079731 1.1877035-.3040427 1.734475-.5829871 1.2540707.63032 6.0712521 3.5110612 6.403425 10.6357664-2.7759685 1.7376755-5.9619315 2.6543515-9.2531724 2.6543515-3.2912408 0-6.4778776-.916676-9.252667-2.6543515.334868-7.1701853 5.1244245-10.0072993 6.4008984-10.6377878z"/>
    <path fill="#455053" d="M42.9346996 11.86299832l1.78197642 1.33964065c3.33065694-4.431443 8.41297028-6.97327345 13.94402018-6.97327345 9.6117912 0 17.4313308 7.81953958 17.4313308 17.43133068h2.2293655C78.3213925 12.81976418 69.5016283 4 58.66137 4c-6.239023 0-11.97085905 2.86558113-15.7266704 7.86299832zM57.1775407 37.3869175h2.9674902v-2.2298709h-2.9674902M73.128411 23.6600225h-2.2291971c0 1.9792251-.4573273 3.8690061-1.3593487 5.6166198l1.9810781 1.0224593c1.0667602-2.0666479 1.6074677-4.3005615 1.6074677-6.6390791z"/>
    <path fill="#455053" d="M50.2015722 14.8232454l-1.53840544-1.6133633c-2.88259405 2.7485121-4.46967995 6.4601909-4.46967995 10.4508141h2.2291971c0-3.3754632 1.341662-6.5140932 3.7788883-8.8374508z"/>
    <path fill="#FFF" d="M84.5582783 37.03542015h28.6085533V57.0875916c-.4798948 5.4115983-4.1926738 9.4910485-11.138337 12.2383506v14.1289506c4.3790371 1.4769155 6.9555105 2.9165843 7.7294201 4.3190065H88.5666801c3.1367974-2.8793376 5.6369759-4.3190065 7.5005354-4.3190065V69.3259422c-6.8200846-2.0404614-10.656397-6.1199116-11.5089372-12.2383506V37.03542015z"/>
    <path fill="#455053" d="M114.9653301 39.09613692v-1.5199022c0-1.1045695-.8954305-2-2-2h-28.260269c-1.1045695 0-1.99999998.8954305-1.99999998 2v1.5199022h-7.67797066c-1.1045695 0-2 .8954305-2 2V44.770978c0 7.883912 3.92831296 13.1582641 10.12158924 13.8071883 1.3537408 5.6715403 5.7082885 10.1876039 11.2876284 11.7717359v12.365868c-4.936357 1.2230318-8.0540098 4.2513447-8.2164059 4.4122005-.5756048.5693113-.5807067 1.4974491-.0113954 2.0730539.275357.278401.6506528.4350634 1.0422247.4350634h23.4621637c.8097872 0 1.4662495-.6564622 1.4662495-1.4662495 0-.3747513-.1434907-.7352792-.4010029-1.0075402-.1520538-.1608558-3.0927873-3.2001712-8.5431785-4.437066V70.3499022c5.5784597-1.584132 9.9330074-6.1001956 11.2869682-11.7708557 6.1930563-.6498044 10.1213692-5.9241565 10.1213692-13.8080685v-3.67484108c0-1.1045695-.8954305-2-2-2h-7.6779706zM75.96012225 44.770978v-2.74290954h6.74581907V54.8349144c0 .2405135.0077017.4794866.018044.7175795-4.94757945-.954132-6.76386307-6.0143765-6.76386307-10.7815159zm29.95503665 41.9322983H92.0210513c1.7166015-.8390465 3.9454768-1.5636675 6.5207091-1.5636675 3.0892665 0 5.5562347.7263814 7.3733985 1.5636675zm-8.545819-4.4533496V70.8949633c.4830073.0437898.9712958.0695355 1.4664058.0695355.4942299 0 .9822983-.0257457 1.4664059-.0695355v11.3840098c-.5672861-.0455501-1.1528362-.072176-1.759511-.072176-.3989487 0-.7899756.0162836-1.1733007.0431296zm14.6631784-27.4150123c0 7.2770171-5.9197555 13.1967726-13.1967726 13.1967726-7.2772371 0-13.1969926-5.9197555-13.1969926-13.1967726V38.50904645h26.3937652V54.8349144zm9.6779707-10.0639364c0 4.7671394-1.8162836 9.8273839-6.7632029 10.7815159.0103423-.2380929.018044-.477066.018044-.7175795V42.02894866h6.7451589V44.770978z"/>
    <path fill="#455053" d="M106.1668949 50.337555h2.9328117V41.54h-2.9328117m0 14.8592421h2.9328117v-3.1288754h-2.9328117"/>
  </g>
</svg>
