<svg xmlns="http://www.w3.org/2000/svg" width="182" height="91" xmlns:xlink="http://www.w3.org/1999/xlink">
  <defs>
    <path id="a" d="M0 0h100v100H0V0zm19 0v47h62V0H19z"/>
  </defs>
  <g fill="none" fill-rule="evenodd">
    <g transform="translate(41 -5)">
      <mask id="b" fill="#fff">
        <use xlink:href="#a"/>
      </mask>
      <path fill="#455053" d="M60 82v10.3834725h5.8833906c.8284272 0 1.5.6715729 1.5 1.5s-.6715728 1.5-1.5 1.5H33.1166094c-.8284272 0-1.5-.6715729-1.5-1.5s.6715728-1.5 1.5-1.5H40V82H8c-1.65685425 0-3-1.3431458-3-3V15c0-1.6568542 1.34314575-3 3-3h84c1.6568542 0 3 1.3431458 3 3v64c0 1.6568542-1.3431458 3-3 3H60zm-3 0H43v10.3834725h14V82z" mask="url(#b)"/>
      <rect width="84" height="64" x="8" y="15" fill="#FFF" rx="1"/>
      <path fill="#DBE3E9" d="M9 15h82c.5522847 0 1 .4477153 1 1v53H8V16c0-.5522847.44771525-1 1-1z"/>
      <path fill="#FFF" d="M23.5999756 29h53v40h-53z"/>
      <rect width="75" height="3" x="13" y="67" fill="#455053" rx="1.5"/>
      <rect width="3" height="29" x="22" y="41" fill="#455053" rx="1.5"/>
      <rect width="3" height="23" x="75" y="47" fill="#455053" rx="1.5"/>
    </g>
    <path fill="#DBE3E9" d="M146.761944 88.6918101h34.594603V77.6897062l-11.088738-6.0015336-6.208564 3.8382296-6.033172-3.8382296-10.606305 4.9372934"/>
    <path fill="#0299BC" d="M1.42205683 88.7009396H32.4549964V78.2603789l-7.6083273-4.8129945c-3.6184329 3.8330096-6.2544804 5.7495144-7.9081425 5.7495144s-4.2126431-1.9165048-7.67694277-5.7495144l-7.839527 4.8129945v10.4405607z"/>
    <path fill="#455053" d="M16.8184336 77.4996152c-2.4658594 0-4.7487305-1.2890039-6.0431836-3.3449414l.8476172-.4238086c1.410293-.7054101 2.2865625-2.1230859 2.2865625-3.6998437v-1.5533789c.928125.2504883 1.902832.3861914 2.9090039.3861914.9945703 0 1.9715625-.1335938 2.9088281-.3872461v1.5544336c0 1.576582.8760938 2.9942578 2.2865625 3.6998437l.8511328.4253907c-1.291289 2.0612109-3.5585156 3.3433593-6.0465234 3.3433593M2.9640586 67.1074277c1.1343164-2.7346289 2.4672656-7.9126172 2.49046873-13.5066797.0244336-5.8986914 4.54201172-10.932539 10.28496096-11.4598828.7171875-.0659179 1.4401758-.0659179 2.1577148 0 5.7427735.5273438 10.2603516 5.5611914 10.2847852 11.4598828.0232031 5.5940625 1.3561523 10.7722266 2.4904687 13.5066797.0195118.0469336-.0182812.082793-.042539.0994922-1.1636719.8152735-3.7659375 2.3060742-8.210918 3.2269922-.0356836-.1291992-.0550195-.2641992-.0550195-.4028906v-2.6446289c1.7161523-.9808594 3.174082-2.4129492 4.1823633-4.1872852 1.8492187-3.2538867 1.1808984-7.4545312-1.5890625-9.9878906-1.9420313-1.775918-5.419336-3.8930273-10.9569727-3.8930273-.3496289 0-.6848438.1388671-.9323438.3860156l-2.818125 2.8179492c-.51486328.5148633-.51486328 1.3496484 0 1.8645117.5150391.5146875 1.3496485.5146875 1.8645118 0l2.4245507-2.4245508c3.5228321.0984375 6.4270899 1.1721094 8.6389454 3.1948243 1.8704882 1.7105273 2.323125 4.545 1.0761328 6.7392773-1.5180469 2.6713477-4.3672852 4.3305469-7.4355469 4.3305469-4.7119922 0-8.5452539-3.8334375-8.5452539-8.5452539 0-.728086-.5900977-1.3183594-1.3183594-1.3183594-.7282617 0-1.3183594.5902734-1.3183594 1.3183594 0 4.1484375 2.2725 7.77375 5.63624996 9.7038281v2.645332c0 .1386914-.0195117.2738672-.0550195.4030664-4.44533203-.9209179-7.0472461-2.4117187-8.2105664-3.2268164-.0244336-.016875-.06257814-.0527344-.0430664-.0994922m27.6071484 7.9539258l-5.2502343-2.6251172c3.5114062-1.0010742 5.7209765-2.2985156 6.8220703-3.0701953 1.0587304-.7421484 1.4554687-2.0865234.9648632-3.2691797-1.0427343-2.5131445-2.2675781-7.2966797-2.2891992-12.5071875-.0300586-7.2421875-5.5998632-13.4245898-12.680332-14.0748047-.8773242-.0805078-1.7634375-.0805078-2.6402344 0-7.08046873.6502149-12.6504492 6.8326172-12.6805078 14.0748047-.0216211 5.2105078-1.2466406 9.994043-2.2891992 12.5071875-.49060548 1.1828321-.0936914 2.5270313.96503905 3.2691797 1.10109376.7716797 3.3103125 2.0691211 6.8220703 3.0701953l-5.2500585 2.6251172c-1.89070313.9455274-3.06544922 2.8460742-3.06544922 4.9603711v8.6598633c0 .7280859.59009765 1.3183594 1.31835937 1.3183594s1.31835938-.5902735 1.31835938-1.3183594v-8.6598633c0-1.1091797.6161133-2.1060351 1.60804688-2.6020898l4.1617969-2.0808985c1.74568366 2.9427539 4.94841796 4.7975977 8.41183596 4.7975977 3.4941797 0 6.6701953-1.8467578 8.4123633-4.7972461l4.1610937 2.0805469c.9919336.4960547 1.6078711 1.4929101 1.6078711 2.6020898v8.6598633c0 .7280859.5900977 1.3183594 1.3183594 1.3183594.7282617 0 1.3183594-.5902735 1.3183594-1.3183594v-8.6598633c0-2.1141211-1.1743946-4.0148437-3.0652735-4.9603711"/>
    <path fill="#455053" d="M6.95460938 81.7269434c-.72826172 0-1.31835938.5902734-1.31835938 1.3183593v5.63625c0 .728086.59009766 1.3183594 1.31835938 1.3183594.7282617 0 1.31835937-.5902734 1.31835937-1.3183594v-5.63625c0-.7282617-.59009766-1.3183593-1.31835937-1.3183593m19.72722652 0c-.7282617 0-1.3183593.5902734-1.3183593 1.3183593v5.63625c0 .728086.5900976 1.3183594 1.3183593 1.3183594.7282618 0 1.3183594-.5902734 1.3183594-1.3183594v-5.63625c0-.7282617-.5900976-1.3183593-1.3183594-1.3183593M169.722945 63.8147813c-1.672558 1.6228125-3.878086 2.4783398-6.21457 2.4082031-4.566094-.1369336-8.281055-4.1542383-8.281055-8.9548242v-2.4046875c0-.2047852-.047636-.4065821-.139218-.5895704l-.516446-1.0330664c-.49289-.9856054-.753222-2.0891601-.753222-3.1964062 0-3.6086133 2.935722-6.544336 6.54416-6.544336h13.364121v6.5492579c0 1.1023242-.260332 2.2058789-.753223 3.1914843l-.516445 1.0330664c-.091582.1831641-.139219.3847852-.139219.5895704v2.8179492c0 2.3313867-.921445 4.5094922-2.594883 6.1333594zm-5.950547 10.537207l-4.489804-3.3672656c.110918-.3731836.171914-.7646485.171914-1.1649024v-1.8685547c1.232051.5435156 2.572207.8651953 3.975117.9072071.11584.0036914.231504.0054492.347168.0054492 1.505391 0 2.964375-.2972461 4.313848-.8623828v1.8182812c0 .4004297.060996.7917188.171562 1.1649024l-4.489805 3.3672656zm14.629219-.6152344l-6.701133-2.5129687c-.582363-.2181446-.973125-.7824024-.973125-1.4041407v-3.3804492c.287051-.2288672.564786-.4728516.831621-.7321289 2.189532-2.124668 3.395391-4.9749609 3.395391-8.0254687v-2.5068165l.377227-.7546289c.675-1.3498242 1.03166-2.8610156 1.03166-4.3708007v-7.8676172c0-.728086-.589922-1.3183594-1.31836-1.3183594h-14.68248c-5.062676 0-9.180879 4.1185547-9.180879 9.1859766 0 1.5092578.35666 3.0208007 1.03166 4.370625l.377227.7546289v2.0933789c0 3.6261914 1.658847 6.9052148 4.227363 9.0442968v3.5071875c0 .6217383-.391289 1.1859961-.973301 1.4041407l-6.700781 2.5131445c-2.152441.8070117-3.598594 2.8937109-3.598594 5.1924024v9.7525195c0 .7279101.590098 1.3183594 1.31836 1.3183594.728261 0 1.318359-.5904493 1.318359-1.3183594v-9.752168c0-1.2058594.758496-2.3004492 1.887363-2.7237305l6.700957-2.5129687c.362813-.1360547.696621-.3230859.999317-.5470313l4.684394 3.5133399v12.0225586c0 .7279101.590274 1.3183594 1.31836 1.3183594.728437 0 1.318359-.5904493 1.318359-1.3183594V76.6591172l4.68457-3.5133399c.30252.2241211.636504.4111524.998965.5470313l6.701485 2.5129687c1.128691.4231055 1.887363 1.5178711 1.887363 2.7237305v9.752168c0 .7279101.589922 1.3183594 1.318359 1.3183594.728086 0 1.31836-.5904493 1.31836-1.3183594v-9.752168c.000351-2.2988672-1.445801-4.3855664-3.598067-5.1927539z"/>
    <path fill="#455053" d="M159.636719 52.1226577v-.298125c2.824101-.403418 5.058457-.0724219 6.493008.3049804 1.728457.4547461 2.702988 1.0729688 2.735332 1.093711.223418.1474804.475488.2179687.724746.2179687.426093 0 .844101-.2061914 1.098105-.5872851.403945-.6057422.239942-1.4243555-.365625-1.828125-.19125-.1274415-4.76789-3.1037696-12.2625-1.6048829C157.44332 49.5441225 157 50.0851772 157 50.7135952v1.4090625c0 .7280859.589922 1.3183593 1.318359 1.3183593.728262 0 1.31836-.5902734 1.31836-1.3183593m-5.727723 28.1951177c-.728437 0-1.318359.5902734-1.318359 1.3183594v7.0454882c0 .728086.589922 1.3183594 1.318359 1.3183594.728262 0 1.318359-.5902734 1.318359-1.3183594v-7.0454882c0-.728086-.590097-1.3183594-1.318359-1.3183594m19.727139 0c-.728262 0-1.31836.5902734-1.31836 1.3183594v7.0454882c0 .728086.590098 1.3183594 1.31836 1.3183594.728437 0 1.318359-.5902734 1.318359-1.3183594v-7.0454882c0-.728086-.589922-1.3183594-1.318359-1.3183594"/>
    <path fill="#93A5A5" d="M113.0625 7h-34c-2.209139 0-4 1.790861-4 4v23c0 2.209139 1.790861 4 4 4h10.504809l12.6938784 7.7880032L101.662281 38H113.0625c2.209139 0 4-1.790861 4-4V11c0-2.209139-1.790861-4-4-4z"/>
    <path fill="#FFF" d="M67.0625 1h40c2.209139 0 4 1.790861 4 4v23c0 2.209139-1.790861 4-4 4H95.557691L80.8188525 42.6972267 82.7783542 32H67.0625c-2.209139 0-4-1.790861-4-4V5c0-2.209139 1.790861-4 4-4z"/>
    <path fill="#14C3A2" d="M66.0625 2h43c1.1045695 0 2 .8954305 2 2v26c0 1.1045695-.8954305 2-2 2H96.3732605L81.0423981 42.7535551 83.2134174 32H66.0625c-1.1045695 0-2-.8954305-2-2V4c0-1.1045695.8954305-2 2-2z"/>
    <path fill="#455053" d="M100.1541562 38.1712324l.9087891 5.4529102-9.6778125-6.4516992 4.861582-3.5358399h10.8439454c3.0577148 0 5.5457226-2.4876562 5.5457226-5.5455469V8.27295117h.0905274c1.6040039 0 2.9091796 1.30482422 2.9091796 2.90882813v22.5453516c0 1.6040039-1.3051757 2.9088281-2.9091796 2.9088281h-11.2726758c-.3875977 0-.7553321.1705078-1.0058203.4661719-.2504883.295664-.3580664.6869531-.2942579 1.0691015zm-17.676914 2.2194141l1.9381641-7.7526563c.0984375-.39375.0100195-.8110547-.2399415-1.1311523-.2497851-.3199219-.633164-.5069531-1.0390429-.5069531H67.6365586c-1.6040039 0-2.9090039-1.3048243-2.9090039-2.9088282V5.5455293c0-1.6040039 1.305-2.90882813 2.9090039-2.90882813h39.4542773c1.6040039 0 2.9090039 1.30482422 2.9090039 2.90882813v22.5453516c0 1.6040039-1.305 2.9088281-2.9090039 2.9088281H95.8181602c-.2786133 0-.5500196.0882422-.7753711.2522461l-12.5655469 9.1386914zm-3.5680078-3.7545117c-1.6040039 0-2.9090039-1.3048243-2.9090039-2.9088282v-.0907031h5.4476367l-.7498828 2.9995313h-1.78875zm24.0904687 9.9833203c.6776367-.4382227 1.0297266-1.2353906.8971875-2.0311524l-.8859375-5.3152734h9.7161328c3.0580664 0 5.5458985-2.4876563 5.5458985-5.5455469V11.1819551c0-3.05789065-2.4876563-5.5455469-5.5458985-5.5455469h-.0905273v-.09070312c0-3.0580664-2.487832-5.54572266-5.5457227-5.54572266H67.6365586c-3.0580664 0-5.54572266 2.48765625-5.54572266 5.54554688v22.5453516c0 3.0578906 2.48765625 5.5455468 5.54572265 5.5455468h5.7269531v.0907032c0 3.0578906 2.4876563 5.5455468 5.5457227 5.5455468h1.1295703l-.5292774 2.1169336c-.2088281.8351367.1174219 1.6860938.8312696 2.1675586.3466406.2337891.7396875.3503321 1.1320312.3503321.4157227 0 .830918-.1307813 1.1891602-.3912891l5.8350586-4.2437109h1.2858398l10.9965235 7.3311328c.3399609.226582.7308984.3399609 1.1220117.3399609.3816211.0003516.7637695-.1077539 1.0982812-.3241406z"/>
    <path fill="#FFF" d="M73.2727559 11.0913047h4.2266601c.7282617 0 1.3183594-.5902735 1.3183594-1.3183594 0-.72808593-.5900977-1.31835936-1.3183594-1.31835936h-4.2266601c-.7282618 0-1.31835942.59027343-1.31835942 1.31835937 0 .7280859.59027342 1.3183594 1.31835942 1.3183594m9.8640175 0h18.3178125c.7282618 0 1.3183594-.5902735 1.3183594-1.3183594 0-.7280859-.5900976-1.31835933-1.3183594-1.31835933H83.1367734c-.7282617 0-1.3183593.59027343-1.3183593 1.31835937 0 .7280859.5900976 1.3183594 1.3183593 1.3183594m-9.8640175 7.0454883h28.1816015c.7282617 0 1.3183594-.5902735 1.3183594-1.3183594 0-.7280859-.5900977-1.3183594-1.3183594-1.3183594H73.2727559c-.7282618 0-1.31835942.5902735-1.31835942 1.3183594 0 .7280859.59027342 1.3183594 1.31835942 1.3183594m18.3178125 4.4085234H73.2727559c-.7282618 0-1.31835942.5902734-1.31835942 1.3183594 0 .7280859.59009762 1.3183594 1.31835942 1.3183594h18.3178125c.7282617 0 1.3183593-.5902735 1.3183593-1.3183594 0-.728086-.5900976-1.3183594-1.3183593-1.3183594m9.8639296 0h-4.2266601c-.7280859 0-1.3183594.5902734-1.3183594 1.3183594 0 .7280859.5902735 1.3183594 1.3183594 1.3183594h4.2266601c.7284375 0 1.3183594-.5902735 1.3183594-1.3183594 0-.728086-.5900976-1.3183594-1.3183594-1.3183594"/>
  </g>
</svg>
