<svg xmlns="http://www.w3.org/2000/svg" width="146" height="83" xmlns:xlink="http://www.w3.org/1999/xlink">
  <defs>
    <path id="a" d="M75,5.08433095 L75,0 L0,0 L0,84 L75,84 L75,61.7096949 L69.7620475,83 C69.5788719,83.4416543 64.9974722,82.9715798 64.450435,83 C63.9990307,83 60.3562003,84.0775665 60.1365141,83.6790612 L56.3154031,73.1939894 L45.2695839,75.104883 C44.8100892,75.2376489 44.3140839,75.0959628 43.9956531,74.7393617 C43.6763924,74.3827606 43.5896797,73.8747234 43.7728552,73.4330691 L53.7708527,44.8764418 C50.6552091,40.6974258 51.9872329,35.6803457 51.9872329,30.0792819 C51.9872329,16.9464115 62.1344874,6.13860671 75,5.08433095 Z"/>
    <path id="c" d="M58.1332954 0.00744681L0.00004294 0.00744681 0.00004294 70 58.1332954 70 58.1332954 0.00744681z"/>
  </defs>
  <g fill="none" fill-rule="evenodd">
    <g transform="translate(24)">
      <mask id="b" fill="#fff">
        <use xlink:href="#a"/>
      </mask>
      <path fill="#EDEFF2" d="M14 1H70V73H14z" mask="url(#b)"/>
      <path fill="#FFF" d="M6 9L50.1776454 9 62 21.3028655 62 81 6 81" mask="url(#b)"/>
      <path fill="#455053" d="M50.2058052,7 L7,7 L7,7 C5.34314575,7 4,8.34314575 4,10 L4,80 L4,80 C4,81.6568542 5.34314575,83 7,83 L62,83 L62,83 C63.6568542,83 65,81.6568542 65,80 L65,21.7318348 L65,21.7318348 C65,20.9334294 64.6817423,20.1679584 64.11569,19.604899 L52.3214952,7.87306419 L52.3214952,7.87306419 C51.7593501,7.31389136 50.9986995,7 50.2058052,7 Z M52.1533707,11.6127022 L60.2411306,19.6568208 L52.1533707,19.673072 L52.1533707,11.6127022 Z M6.77694547,79.2375176 L6.77694547,10.7613844 L6.77694547,10.7613844 C6.77694547,10.2090996 7.22466072,9.76138436 7.77694547,9.76138436 L48.3773084,9.76138436 L48.3773084,9.76138436 C48.9295931,9.76138436 49.3773084,10.2090996 49.3773084,10.7613844 L49.3773084,21.4386546 L49.3773084,21.4386546 C49.3773084,21.9909393 49.8250236,22.4386546 50.3773084,22.4386546 C50.377958,22.4386546 50.3786077,22.438654 50.3792573,22.4386527 L62.2230545,22.4155698 L62.2230545,79.2375176 L62.2230545,79.2375176 C62.2230545,79.7898023 61.7753393,80.2375176 61.2230545,80.2375176 L7.77694547,80.2375176 L7.77694547,80.2375176 C7.22466072,80.2375176 6.77694547,79.7898023 6.77694547,79.2375176 Z" mask="url(#b)"/>
      <path fill="#455053" d="M12,3 L12,5.48115058 L14.7531996,5.48115058 L14.7531996,3.74090216 L14.7531996,3.74090216 C14.7531996,3.18861741 15.2009148,2.74090216 15.7531996,2.74090216 L67.247676,2.74090216 L67.247676,2.74090216 C67.7999607,2.74090216 68.247676,3.18861741 68.247676,3.74090216 L68.247676,71.2590978 L65.6774685,71.2590978 L65.6774685,74 L71,74 L71,3 L71,3 C71,1.34314575 69.6568542,-3.04359188e-16 68,0 L41.5,0 L15,0 L15,0 C13.3431458,3.04359188e-16 12,1.34314575 12,3 Z" mask="url(#b)"/>
      <path fill="#455053" d="M12 21L44 21 44 18 12 18M12 30L54 30 54 27 12 27M12 38L54 38 54 35 12 35M12 47L54 47 54 44 12 44M12 55L54 55 54 52 12 52M12 63L54 63 54 60 12 60M12 72L54 72 54 69 12 69" mask="url(#b)"/>
    </g>
    <g transform="translate(72 8)">
      <mask id="d" fill="#fff">
        <use xlink:href="#c"/>
      </mask>
      <path fill="#0299BC" d="M11.8832391 36L1 62.4489406 10.7739211 59.8788477 15.6232996 68.6927422 26.1006527 43.7714466C22.3719064 42.9139878 19.6376621 42.0481322 17.8979199 41.1738799 16.1581776 40.2996276 14.153284 38.575001 11.8832391 36zM32.301087 44.0747443L42.2149687 68.8223851 47.0368735 60.0230051 56.8372315 62.8009654 46.0042746 36.088173C43.4860191 38.8687253 41.2666919 40.6771555 39.3462931 41.5134638 37.4258943 42.3497721 35.0774922 43.2035323 32.301087 44.0747443z" mask="url(#d)"/>
      <path fill="#455053" d="M58.0480585,62.3117287 L48.7808777,39.9385372 C48.5453723,39.3692287 47.8915426,39.0979787 47.3214894,39.3342287 C46.7519947,39.5706649 46.4807447,40.22375 46.7171809,40.7938032 L55.0948404,61.0195213 L47.4531117,58.8050266 C46.9511968,58.6596277 46.4159574,58.8813564 46.1636968,59.3387766 L42.3261702,66.308617 L33.3367553,44.6060106 C43.7122074,42.6054255 51.5734309,33.4575798 51.5734309,22.5070479 C51.5734309,10.0967553 41.4774202,0 29.0665691,0 C16.6564628,0 6.55952128,10.0967553 6.55952128,22.5070479 C6.55952128,27.5336436 8.21625,32.1804521 11.0123404,35.9308511 L0.0850797872,62.3117287 C-0.0793085106,62.7080851 -0.0014893617,63.164016 0.285026596,63.4840426 C0.570797872,63.8040691 1.01593085,63.9312234 1.42829787,63.8120745 L10.4437766,61.199734 L14.9714362,69.4219415 C15.1685904,69.7795745 15.5444681,70 15.9495745,70 C15.969867,70 15.9910904,69.9992553 16.011383,69.9985106 C16.4405053,69.9744947 16.8171277,69.7069681 16.981516,69.3106117 L25.6406649,48.4064894 C25.8761702,47.8369947 25.6056649,47.1831649 25.0356117,46.9476596 C24.4653723,46.7112234 23.8122872,46.9817287 23.5760372,47.5519681 L15.8069681,66.308617 L11.9694415,59.3387766 C11.7171809,58.8813564 11.1811968,58.6596277 10.6800266,58.8050266 L3.03829787,61.0195213 L12.6297872,37.8646011 C16.7400532,42.2606383 22.5876596,45.0139096 29.0665691,45.0139096 C29.7356649,45.0139096 30.3973138,44.982633 31.0511436,44.9251064 L41.1516223,69.3106117 C41.3160106,69.7069681 41.6933777,69.9744947 42.1217553,69.9985106 C42.1427926,69.9992553 42.1632713,70 42.1843085,70 C42.5894149,70 42.9652926,69.7795745 43.1624468,69.4219415 L47.6901064,61.199734 L56.7055851,63.8120745 C57.1179521,63.9312234 57.5621543,63.8040691 57.8486702,63.4840426 C58.1353723,63.164016 58.2124468,62.7080851 58.0480585,62.3117287 Z M8.79356383,22.5070479 C8.79356383,11.3288298 17.8883511,2.23404255 29.0665691,2.23404255 C40.2455319,2.23404255 49.3393883,11.3288298 49.3393883,22.5070479 C49.3393883,33.6858245 40.2455319,42.779867 29.0665691,42.779867 C17.8883511,42.779867 8.79356383,33.6858245 8.79356383,22.5070479 Z" mask="url(#d)"/>
    </g>
    <path fill="#14C3A2" d="M29.1843154 10.252899L25.1577332 17.449941 17.6617501 18.4586918 22.9770772 24.5961069 22.0177991 32.1682288 29.1843154 28.916718 36.3325865 32.5864656 35.1669969 24.5961069 40.9075783 18.4586918 32.8831852 17.449941" transform="translate(72 8)"/>
    <path fill="#455053" d="M41.9733777,18.3130053 C41.844734,17.9173936 41.5064628,17.6258511 41.0955851,17.5567819 L33.5797074,16.2956649 L30.0569947,9.53694149 C29.8650532,9.16739362 29.4832181,8.93617021 29.0665691,8.93617021 C28.6506649,8.93617021 28.2688298,9.16739362 28.0761436,9.53694149 L24.5541755,16.2956649 L17.0375532,17.5567819 C16.6266755,17.6258511 16.2884043,17.9173936 16.1597606,18.3130053 C16.0309309,18.7093617 16.1335106,19.1442553 16.4252394,19.4410106 L21.7644149,24.8792287 L20.6416223,32.417633 C20.5805585,32.8292553 20.7529521,33.2416223 21.0895479,33.4858777 C21.4263298,33.7303191 21.8712766,33.767367 22.2443617,33.5826862 L29.0665691,30.1850798 L35.8885904,33.5826862 C36.0464628,33.6605053 36.2166223,33.6997872 36.3867819,33.6997872 C36.61875,33.6997872 36.8494149,33.6277394 37.0435904,33.4858777 C37.3801862,33.2416223 37.5533245,32.83 37.491516,32.417633 L36.3687234,24.8799734 L41.7078989,19.4410106 C41.9996277,19.1442553 42.1020213,18.7093617 41.9733777,18.3130053 Z M34.3847074,23.7111968 C34.1397074,23.9614096 34.0255851,24.3119681 34.0771543,24.6588032 L34.9664894,30.627234 L29.5647606,27.9370745 C29.407633,27.8586968 29.2374734,27.8201596 29.0665691,27.8201596 C28.8964096,27.8201596 28.7255053,27.8586968 28.5691223,27.9370745 L23.1672074,30.627234 L24.055984,24.6588032 C24.1082979,24.3119681 23.9941755,23.9614096 23.7482447,23.7111968 L19.5208777,19.405266 L25.4718085,18.4068351 C25.8173404,18.34875 26.1161436,18.1320479 26.2775532,17.821516 L29.0665691,12.4696809 L31.8553989,17.821516 C32.0175532,18.1320479 32.3157979,18.34875 32.6613298,18.4068351 L38.6120745,19.405266 L34.3847074,23.7111968 Z" transform="translate(72 8)"/>
    <path fill="#455053" d="M45.987766,23.6333777 C45.3760106,23.5520213 44.8147074,23.9824468 44.7331649,24.594016 C43.6976862,32.4146543 36.9620479,38.3117819 29.0665691,38.3117819 C20.351383,38.3117819 13.2616489,31.2220479 13.2616489,22.5070479 C13.2616489,13.7918617 20.351383,6.70212766 29.0665691,6.70212766 C36.9620479,6.70212766 43.6976862,12.5992553 44.7331649,20.4198936 C44.8147074,21.0314628 45.3767553,21.462633 45.987766,21.3805319 C46.5993351,21.2989894 47.029016,20.7376862 46.9484043,20.1259309 C45.7658511,11.2 38.0783245,4.46808511 29.0665691,4.46808511 C19.1202394,4.46808511 11.0276064,12.5599734 11.0276064,22.5070479 C11.0276064,32.4539362 19.1202394,40.5458245 29.0665691,40.5458245 C38.0783245,40.5458245 45.7658511,33.8146543 46.9484043,24.8879787 C47.029016,24.2762234 46.5993351,23.7149202 45.987766,23.6333777 Z" transform="translate(72 8)"/>
    <path fill="#455053" d="M18 21.7524634L20.5922195 21.7524634 20.5922195 19 18 19M0 25.7524634L2.59221951 25.7524634 2.59221951 23 0 23M11 33.7524634L13.592878 33.7524634 13.592878 31 11 31M18 2.75246341L20.5922195 2.75246341 20.5922195 0 18 0M8 12.7524634L10.5922195 12.7524634 10.5922195 10 8 10M129 12.7524634L131.59222 12.7524634 131.59222 10 129 10M134 26.7524634L136.592878 26.7524634 136.592878 24 134 24M136 2.75246341L138.59222 2.75246341 138.59222 0 136 0M143 17.7524634L145.59222 17.7524634 145.59222 15 143 15" transform="translate(0 32)"/>
  </g>
</svg>
