<svg xmlns="http://www.w3.org/2000/svg" width="93" height="90" xmlns:xlink="http://www.w3.org/1999/xlink">
  <defs>
    <path id="a" d="M92.9032258 23.2294355L92.9032258 0.00725806 0.0108871 0.00725806 0.0108871 46.4516129 92.9032258 46.4516129z"/>
    <path id="c" d="M0.0108871 0L0.0108871 46.4516129 46.4570565 46.4516129 92.9032258 46.4516129 92.9032258 0z"/>
  </defs>
  <g fill="none" fill-rule="evenodd">
    <mask id="b" fill="#fff">
      <use xlink:href="#a"/>
    </mask>
    <use fill="#14C3A2" xlink:href="#a"/>
    <path fill="#455053" d="M2.90322581,2.90322581 L2.90322581,43.5483871 L90.0014516,43.5483871 L90,2.90322581 L2.90322581,2.90322581 Z M90,46.4516129 L2.90322581,46.4516129 C1.30209677,46.4516129 0,45.1495161 0,43.5483871 L0,2.90322581 C0,1.30209677 1.30209677,0 2.90322581,0 L90,0 C91.601129,0 92.9032258,1.30209677 92.9032258,2.90322581 L92.9032258,43.5483871 C92.9032258,45.1495161 91.601129,46.4516129 90,46.4516129 L90,46.4516129 Z" mask="url(#b)"/>
    <path fill="#455053" d="M11.3646774,37.7419355 L81.5385484,37.7419355 C81.9769355,36.5066129 82.9582258,35.5253226 84.1935484,35.0869355 L84.1935484,11.3646774 C82.9567742,10.9262903 81.9769355,9.945 81.5385484,8.70967742 L11.3646774,8.70967742 C10.9262903,9.945 9.94645161,10.9262903 8.70967742,11.3646774 L8.70967742,35.0883871 C9.94645161,35.5253226 10.9262903,36.5066129 11.3646774,37.7419355 Z M82.7419355,40.6451613 L10.1612903,40.6451613 C9.35854839,40.6451613 8.70967742,39.9948387 8.70967742,39.1935484 C8.70967742,38.3937097 8.05935484,37.7419355 7.25806452,37.7419355 C6.45532258,37.7419355 5.80645161,37.0916129 5.80645161,36.2903226 L5.80645161,10.1612903 C5.80645161,9.36 6.45532258,8.70967742 7.25806452,8.70967742 C8.05935484,8.70967742 8.70967742,8.05790323 8.70967742,7.25806452 C8.70967742,6.45677419 9.35854839,5.80645161 10.1612903,5.80645161 L82.7419355,5.80645161 C83.5446774,5.80645161 84.1935484,6.45677419 84.1935484,7.25806452 C84.1935484,8.05790323 84.843871,8.70967742 85.6451613,8.70967742 C86.4479032,8.70967742 87.0967742,9.36 87.0967742,10.1612903 L87.0967742,36.2903226 C87.0967742,37.0916129 86.4479032,37.7419355 85.6451613,37.7419355 C84.843871,37.7419355 84.1935484,38.3937097 84.1935484,39.1935484 C84.1935484,39.9948387 83.5446774,40.6451613 82.7419355,40.6451613 L82.7419355,40.6451613 Z"/>
    <path fill="#FFF" d="M46.4516129,34.8387097 C40.8498387,34.8387097 36.2903226,29.628871 36.2903226,23.2258065 C36.2903226,16.8227419 40.8498387,11.6129032 46.4516129,11.6129032 C52.0533871,11.6129032 56.6129032,16.8227419 56.6129032,23.2258065 C56.6129032,29.628871 52.0533871,34.8387097 46.4516129,34.8387097 L46.4516129,34.8387097 Z"/>
    <path fill="#455053" d="M46.4516129 14.516129C42.4495161 14.516129 39.1935484 18.4224194 39.1935484 23.2258065 39.1935484 28.0291935 42.4495161 31.9354839 46.4516129 31.9354839 50.4537097 31.9354839 53.7096774 28.0291935 53.7096774 23.2258065 53.7096774 18.4224194 50.4537097 14.516129 46.4516129 14.516129zM46.4516129 34.8387097C40.8498387 34.8387097 36.2903226 29.628871 36.2903226 23.2258065 36.2903226 16.8227419 40.8498387 11.6129032 46.4516129 11.6129032 52.0533871 11.6129032 56.6129032 16.8227419 56.6129032 23.2258065 56.6129032 29.628871 52.0533871 34.8387097 46.4516129 34.8387097L46.4516129 34.8387097zM20.3225806 21.7741935C19.5212903 21.7741935 18.8709677 22.4259677 18.8709677 23.2258065 18.8709677 24.0256452 19.5212903 24.6774194 20.3225806 24.6774194 21.123871 24.6774194 21.7741935 24.0256452 21.7741935 23.2258065 21.7741935 22.4259677 21.123871 21.7741935 20.3225806 21.7741935zM20.3225806 27.5806452C17.9216129 27.5806452 15.9677419 25.6267742 15.9677419 23.2258065 15.9677419 20.8248387 17.9216129 18.8709677 20.3225806 18.8709677 22.7235484 18.8709677 24.6774194 20.8248387 24.6774194 23.2258065 24.6774194 25.6267742 22.7235484 27.5806452 20.3225806 27.5806452L20.3225806 27.5806452z"/>
    <path fill="#FFF" d="M20.3225806,21.7741935 C19.5212903,21.7741935 18.8709677,22.4259677 18.8709677,23.2258065 C18.8709677,24.0256452 19.5212903,24.6774194 20.3225806,24.6774194 C21.123871,24.6774194 21.7741935,24.0256452 21.7741935,23.2258065 C21.7741935,22.4259677 21.123871,21.7741935 20.3225806,21.7741935 Z"/>
    <path fill="#455053" d="M72.5806452,21.7741935 C71.7793548,21.7741935 71.1290323,22.4259677 71.1290323,23.2258065 C71.1290323,24.0256452 71.7793548,24.6774194 72.5806452,24.6774194 C73.3819355,24.6774194 74.0322581,24.0256452 74.0322581,23.2258065 C74.0322581,22.4259677 73.3819355,21.7741935 72.5806452,21.7741935 Z M72.5806452,27.5806452 C70.1796774,27.5806452 68.2258065,25.6267742 68.2258065,23.2258065 C68.2258065,20.8248387 70.1796774,18.8709677 72.5806452,18.8709677 C74.9816129,18.8709677 76.9354839,20.8248387 76.9354839,23.2258065 C76.9354839,25.6267742 74.9816129,27.5806452 72.5806452,27.5806452 L72.5806452,27.5806452 Z"/>
    <path fill="#FFF" d="M72.5806452,21.7741935 C71.7793548,21.7741935 71.1290323,22.4259677 71.1290323,23.2258065 C71.1290323,24.0256452 71.7793548,24.6774194 72.5806452,24.6774194 C73.3819355,24.6774194 74.0322581,24.0256452 74.0322581,23.2258065 C74.0322581,22.4259677 73.3819355,21.7741935 72.5806452,21.7741935 Z"/>
    <path fill="#455053" d="M30.4516129 24.8850806C30.0741935 24.8850806 29.6953226 24.7254032 29.4209677 24.4641129 29.1582258 24.1883065 29 23.8108871 29 23.4334677 29 23.0560484 29.1582258 22.678629 29.4209677 22.4028226 29.9580645 21.8657258 30.9451613 21.8657258 31.4822581 22.4028226 31.7435484 22.678629 31.9032258 23.0560484 31.9032258 23.4334677 31.9032258 23.8108871 31.7435484 24.1883065 31.4822581 24.4641129 31.2064516 24.7254032 30.8290323 24.8850806 30.4516129 24.8850806M62.4193548 24.6774194C62.0419355 24.6774194 61.6630645 24.5177419 61.3887097 24.2564516 61.1259677 23.9806452 60.9677419 23.6032258 60.9677419 23.2258065 60.9677419 22.8483871 61.1259677 22.4709677 61.3887097 22.1951613 61.9258065 21.6580645 62.9129032 21.6580645 63.45 22.1951613 63.7112903 22.4709677 63.8709677 22.8483871 63.8709677 23.2258065 63.8709677 23.6032258 63.7112903 23.9806452 63.45 24.2564516 63.1741935 24.5177419 62.7967742 24.6774194 62.4193548 24.6774194"/>
    <g transform="translate(0 43.548)">
      <mask id="d" fill="#fff">
        <use xlink:href="#c"/>
      </mask>
      <path fill="#455053" d="M46.4516129,46.4516129 C45.648871,46.4516129 45,45.8027419 45,45 L45,1.4516129 C45,0.650322581 45.648871,0 46.4516129,0 C47.2543548,0 47.9032258,0.650322581 47.9032258,1.4516129 L47.9032258,45 C47.9032258,45.8027419 47.2543548,46.4516129 46.4516129,46.4516129" mask="url(#d)"/>
      <path fill="#455053" d="M91.4516129,46.4516129 L1.4516129,46.4516129 C0.648870968,46.4516129 0,45.8027419 0,45 C0,44.1972581 0.648870968,43.5483871 1.4516129,43.5483871 L91.4516129,43.5483871 C92.2543548,43.5483871 92.9032258,44.1972581 92.9032258,45 C92.9032258,45.8027419 92.2543548,46.4516129 91.4516129,46.4516129" mask="url(#d)"/>
    </g>
    <path fill="#455053" d="M60.9677419 90C60.165 90 59.516129 89.351129 59.516129 88.5483871L59.516129 52.2580645C59.516129 51.4553226 60.165 50.8064516 60.9677419 50.8064516 61.7704839 50.8064516 62.4193548 51.4553226 62.4193548 52.2580645L62.4193548 88.5483871C62.4193548 89.351129 61.7704839 90 60.9677419 90M75.483871 90C74.681129 90 74.0322581 89.351129 74.0322581 88.5483871L74.0322581 68.2258065C74.0322581 67.4230645 74.681129 66.7741935 75.483871 66.7741935 76.2866129 66.7741935 76.9354839 67.4230645 76.9354839 68.2258065L76.9354839 88.5483871C76.9354839 89.351129 76.2866129 90 75.483871 90M31.9354839 90C31.1327419 90 30.483871 89.351129 30.483871 88.5483871L30.483871 52.2580645C30.483871 51.4553226 31.1327419 50.8064516 31.9354839 50.8064516 32.7382258 50.8064516 33.3870968 51.4553226 33.3870968 52.2580645L33.3870968 88.5483871C33.3870968 89.351129 32.7382258 90 31.9354839 90M17.4193548 90C16.6166129 90 15.9677419 89.351129 15.9677419 88.5483871L15.9677419 68.2258065C15.9677419 67.4230645 16.6166129 66.7741935 17.4193548 66.7741935 18.2220968 66.7741935 18.8709677 67.4230645 18.8709677 68.2258065L18.8709677 88.5483871C18.8709677 89.351129 18.2220968 90 17.4193548 90"/>
    <path fill="#455053" d="M24.6774194 76.9354839C24.3058065 76.9354839 23.9341935 76.7932258 23.651129 76.5101613L17.4193548 70.2783871 11.1875806 76.5101613C10.62 77.0777419 9.70258065 77.0777419 9.135 76.5101613 8.56741935 75.9425806 8.56741935 75.0251613 9.135 74.4575806L16.3930645 67.1995161C16.9606452 66.6319355 17.8780645 66.6319355 18.4456452 67.1995161L25.7037097 74.4575806C26.2712903 75.0251613 26.2712903 75.9425806 25.7037097 76.5101613 25.4206452 76.7932258 25.0490323 76.9354839 24.6774194 76.9354839M39.1935484 60.9677419C38.8219355 60.9677419 38.4503226 60.8254839 38.1672581 60.5424194L31.9354839 54.3106452 25.7037097 60.5424194C25.136129 61.11 24.2187097 61.11 23.651129 60.5424194 23.0835484 59.9748387 23.0835484 59.0574194 23.651129 58.4898387L30.9091935 51.2317742C31.4767742 50.6641935 32.3941935 50.6641935 32.9617742 51.2317742L40.2198387 58.4898387C40.7874194 59.0574194 40.7874194 59.9748387 40.2198387 60.5424194 39.9367742 60.8254839 39.5651613 60.9677419 39.1935484 60.9677419M82.7419355 76.9354839C82.3703226 76.9354839 81.9987097 76.7932258 81.7156452 76.5101613L75.483871 70.2783871 69.2520968 76.5101613C68.6845161 77.0777419 67.7670968 77.0777419 67.1995161 76.5101613 66.6319355 75.9425806 66.6319355 75.0251613 67.1995161 74.4575806L74.4575806 67.1995161C75.0251613 66.6319355 75.9425806 66.6319355 76.5101613 67.1995161L83.7682258 74.4575806C84.3358065 75.0251613 84.3358065 75.9425806 83.7682258 76.5101613 83.4851613 76.7932258 83.1135484 76.9354839 82.7419355 76.9354839M68.2258065 60.9677419C67.8541935 60.9677419 67.4825806 60.8254839 67.1995161 60.5424194L60.9677419 54.3106452 54.7359677 60.5424194C54.1683871 61.11 53.2509677 61.11 52.6833871 60.5424194 52.1158065 59.9748387 52.1158065 59.0574194 52.6833871 58.4898387L59.9414516 51.2317742C60.5090323 50.6641935 61.4264516 50.6641935 61.9940323 51.2317742L69.2520968 58.4898387C69.8196774 59.0574194 69.8196774 59.9748387 69.2520968 60.5424194 68.9690323 60.8254839 68.5974194 60.9677419 68.2258065 60.9677419"/>
    <path fill="#0299BC" d="M75.483871 65.3225806C75.1064516 65.3225806 74.7275806 65.1629032 74.4532258 64.9016129 74.1904839 64.6258065 74.0322581 64.2629032 74.0322581 63.8709677 74.0322581 63.4775806 74.1904839 63.1146774 74.4532258 62.8403226 74.9903226 62.3032258 75.9774194 62.3032258 76.5145161 62.8403226 76.788871 63.1146774 76.9354839 63.4935484 76.9354839 63.8709677 76.9354839 64.2483871 76.788871 64.6258065 76.5145161 64.9016129 76.2387097 65.1629032 75.8612903 65.3225806 75.483871 65.3225806M75.483871 59.516129C75.1064516 59.516129 74.7275806 59.3564516 74.4532258 59.0951613 74.1904839 58.8193548 74.0322581 58.4564516 74.0322581 58.0645161 74.0322581 57.671129 74.1904839 57.3082258 74.4532258 57.033871 75.0048387 56.4967742 75.9629032 56.4967742 76.5145161 57.033871 76.788871 57.3082258 76.9354839 57.6870968 76.9354839 58.0645161 76.9354839 58.4419355 76.788871 58.8193548 76.5145161 59.0951613 76.2387097 59.3564516 75.8612903 59.516129 75.483871 59.516129M75.483871 53.7096774C75.1064516 53.7096774 74.7275806 53.55 74.4532258 53.2887097 74.1904839 53.0129032 74.0322581 52.65 74.0322581 52.2580645 74.0322581 51.8646774 74.1904839 51.4887097 74.4532258 51.2274194 75.0048387 50.6903226 75.9629032 50.6903226 76.5145161 51.2274194 76.788871 51.5017742 76.9354839 51.8806452 76.9354839 52.2580645 76.9354839 52.6354839 76.788871 53.0129032 76.5145161 53.2887097 76.2387097 53.55 75.8612903 53.7096774 75.483871 53.7096774M17.4193548 65.3225806C17.0419355 65.3225806 16.6630645 65.1629032 16.3887097 64.9016129 16.1129032 64.6258065 15.9677419 64.2483871 15.9677419 63.8709677 15.9677419 63.4935484 16.1129032 63.1146774 16.3887097 62.8403226 16.9403226 62.3032258 17.9129032 62.3032258 18.45 62.8403226 18.7112903 63.1146774 18.8709677 63.4935484 18.8709677 63.8709677 18.8709677 64.2483871 18.7112903 64.6258065 18.45 64.9016129 18.1741935 65.1629032 17.7967742 65.3225806 17.4193548 65.3225806M17.4193548 59.516129C17.0419355 59.516129 16.6630645 59.3564516 16.3887097 59.0951613 16.1129032 58.8193548 15.9677419 58.4419355 15.9677419 58.0645161 15.9677419 57.6870968 16.1129032 57.3082258 16.3887097 57.033871 16.9403226 56.4967742 17.8983871 56.4967742 18.45 57.033871 18.7112903 57.3082258 18.8709677 57.6870968 18.8709677 58.0645161 18.8709677 58.4419355 18.7112903 58.8193548 18.45 59.0951613 18.1741935 59.3564516 17.7967742 59.516129 17.4193548 59.516129M17.4193548 53.7096774C17.0419355 53.7096774 16.6630645 53.55 16.3887097 53.2887097 16.1129032 53.0129032 15.9677419 52.6354839 15.9677419 52.2580645 15.9677419 51.8806452 16.1129032 51.5017742 16.3887097 51.2274194 16.9403226 50.6903226 17.9129032 50.6903226 18.45 51.2274194 18.7112903 51.5017742 18.8709677 51.8806452 18.8709677 52.2580645 18.8709677 52.6354839 18.7112903 53.0129032 18.45 53.2887097 18.1741935 53.55 17.7967742 53.7096774 17.4193548 53.7096774"/>
  </g>
</svg>
