<svg xmlns="http://www.w3.org/2000/svg" width="197" height="90">
  <g fill="none" fill-rule="evenodd">
    <path fill="#DBE3E9" d="M46.4747095 27.3660168v59.1273648l2.8713962 2.4580196H129.59389l4.548477-2.4580196V27.640723l-2.051711.6026122L92.4113265 69.792277h-4.528144"/>
    <path fill="#455053" d="M134.065053 26.4185904c-.640532-.6910372-1.55226-1.1266755-2.565718-1.1266755h-8.583271V1.4361702C122.916064.64340426 122.27266 0 121.479894 0H58.5201064c-.7937234 0-1.4361702.64340425-1.4361702 1.4361702v23.8557447h-8.5832713c-1.0134575 0-1.9251862.4356383-2.5657181 1.1266755C45.3571277 27.0430851 45 27.8763032 45 28.7925798v57.7067553C45 88.4293085 46.5706915 90 48.5006649 90h82.9986701C133.429309 90 135 88.4293085 135 86.4993351V28.7925798c0-.9162766-.357128-1.7494947-.934947-2.3739894zm-75.5449466 6.0364628c.7930053 0 1.4361702-.6424468 1.4361702-1.4361702V2.87234043h60.0874464V31.018883c0 .7937234.642208 1.4361702 1.436171 1.4361702.792766 0 1.43617-.6424468 1.43617-1.4361702v-2.8546277h7.278032L91.6166489 68.3415957c-.4330053.4497607-1.0069946.6975-1.6166489.6975-.6096543 0-1.1846011-.2477393-1.6166489-.6975L49.8059043 28.1642553h7.2780319v2.8546277c0 .7937234.6434042 1.4361702 1.4361702 1.4361702zm72.9792286 54.6726064H48.5006649c-.3403723 0-.6283245-.2879522-.6283245-.6283245v-56.202367l26.2596543 27.3489893-23.1058245 24.0642288c-.5498138.5723138-.5311436 1.4811702.0411702 2.030984.278617.267367.6367022.3999734.9947873.3999734.3767553 0 .7535106-.1476862 1.0359574-.442101L76.123484 59.7197872l10.1879522 10.6104256C87.2904255 71.3503723 88.6002128 71.9114362 90 71.9114362s2.7095745-.5610639 3.6885638-1.5812234l10.1889092-10.6104256 9.005984 9.379149c.28125.2934574.658245.4411436 1.035958.4411436.358085 0 .71617-.1326064.994787-.3999734.571357-.5498138.590027-1.4586702.04117-2.0309841l-9.087367-9.4631649 26.259655-27.3489893v56.202367c0 .3403723-.287953.6283245-.628325.6283245z"/>
    <path fill="#455053" d="M119.525745 71.870266c-.548857-.5723139-1.458671-.5909841-2.030984-.0411703-.572075.5488564-.590027 1.4577128-.041171 2.0297873l9.448325 9.8401596c.282447.2934574.659202.442101 1.035957.442101.358085 0 .716171-.1335638.994788-.4009308.572313-.5488564.590026-1.4577128.04117-2.0300266l-9.448085-9.8399202z"/>
    <path fill="#0299BC" d="M178.830357 62.3392857c-.897326 1.3125066-1.982136 2.430799-3.254464 3.3549107.013393.187501.020089.4687482.020089.84375 0 1.7410802-.254462 3.478786-.763393 5.2131697-.508931 1.7343836-1.282361 3.3984295-2.320312 4.9921875-1.037952 1.5937579-2.273431 3.0033421-3.706473 4.2287946-1.433043 1.2254526-3.160705 2.2031214-5.183036 2.9330357C161.600436 84.6350483 159.437512 85 157.133929 85c-3.629483 0-6.950878-.9709724-9.964286-2.9129464.468752.0535717.991068.0803571 1.566964.0803571 3.013408 0 5.698649-.9240979 8.055804-2.7723214-1.406257-.0267859-2.665173-.4587012-3.776786-1.2957589-1.111613-.8370578-1.874998-1.9051275-2.290179-3.2042411.441967.0669646.850445.1004464 1.225447.1004464.575896 0 1.145086-.07366 1.707589-.2209821-1.500007-.3080373-2.742182-1.0546816-3.726562-2.2399554-.98438-1.1852738-1.476563-2.5613761-1.476563-4.1283482v-.0803571c.910719.5089311 1.888388.7834819 2.933036.8236607-.883933-.5892887-1.587051-1.3593703-2.109375-2.3102679s-.783482-1.9821373-.783482-3.09375c0-1.1785773.29464-2.2700842.883928-3.2745536 1.620544 1.9955457 3.592623 3.592628 5.916295 4.7912947 2.323672 1.1986667 4.811371 1.8649547 7.46317 1.9988839-.107144-.5089311-.160715-1.0044619-.160715-1.4866071 0-1.7946519.632806-3.3247705 1.898438-4.5904018 1.265631-1.2656313 2.79575-1.8984375 4.590402-1.8984375 1.875009 0 3.45535.6830289 4.741071 2.0491071 1.459829-.2812514 2.832583-.8035676 4.118304-1.5669643-.495539 1.5401863-1.446422 2.7321387-2.852679 3.5758929 1.245542-.1339292 2.491065-.4687473 3.736607-1.0044643z"/>
    <path fill="#455053" d="M162.5 27.1428571c1.187506 0 2.198657.4174066 3.033482 1.2522322.834826.8348256 1.252232 1.8459762 1.252232 3.0334821 0 1.187506-.417406 2.1986566-1.252232 3.0334822-.834825.8348256-1.845976 1.2522321-3.033482 1.2522321-1.187506 0-2.198657-.4174065-3.033482-1.2522321-.834826-.8348256-1.252232-1.8459762-1.252232-3.0334822 0-.1071434.008928-.2589276.026785-.4553571L153.419643 28.5625c-.821433.767861-1.794637 1.1517857-2.919643 1.1517857-1.187506 0-2.198657-.4174065-3.033482-1.2522321-.834826-.8348256-1.252232-1.8459762-1.252232-3.0334822 0-1.1875059.417406-2.1986565 1.252232-3.0334821.834825-.8348256 1.845976-1.2522322 3.033482-1.2522322 1.125006 0 2.09821.3839248 2.919643 1.1517858l4.821428-2.4107143c-.017857-.1964296-.026785-.3482138-.026785-.4553572 0-1.1875059.417406-2.1986565 1.252232-3.0334821.834825-.8348256 1.845976-1.2522322 3.033482-1.2522322 1.187506 0 2.198657.4174066 3.033482 1.2522322.834826.8348256 1.252232 1.8459762 1.252232 3.0334821 0 1.187506-.417406 2.1986566-1.252232 3.0334822-.834825.8348256-1.845976 1.2522321-3.033482 1.2522321-1.125006 0-2.09821-.3839247-2.919643-1.1517857l-4.821428 2.4107143c.017857.1964295.026785.3482137.026785.4553571s-.008928.2589276-.026785.4553572l4.821428 2.4107143c.821433-.767861 1.794637-1.1517858 2.919643-1.1517858z"/>
    <path fill="#4E60B8" d="M29.2209821 29.7142857c.4687524 0 .8705341.1674091 1.2053572.5022322.3348231.3348231.5022321.7366048.5022321 1.2053571v27.4419643c0 .4687523-.167409.870534-.5022321 1.2053571-.3348231.3348231-.7366048.5022322-1.2053572.5022322h-7.8549107v-11.953125h3.9977679l.6026786-4.6607143h-4.6004465V40.984375c0-.7500037.1573645-1.3124981.4720982-1.6875.3147338-.3750019.9274508-.5625 1.8381697-.5625l2.4508928-.0200893v-4.1584821c-.8437542-.1205363-2.0357065-.1808036-3.5758928-.1808036-1.8214377 0-3.2778963.5357089-4.3694197 1.6071429-1.0915233 1.0714339-1.6372767 2.5848116-1.6372767 4.5401785v3.4352679h-4.0178572v4.6607143h4.0178572v11.953125H1.77901786c-.46875235 0-.87053404-.1674091-1.20535715-.5022322-.3348231-.3348231-.5022321-.7366048-.5022321-1.2053571V31.421875c0-.4687523.16740904-.870534.50223214-1.2053571.33482312-.3348231.7366048-.5022322 1.20535716-.5022322h27.4419642z"/>
    <path fill="#455053" d="M32 6.93281174h2.9328117V4H32m0 10.9328117h2.9328117V12H32m-4-1.06806846h2.9328117V8H28m8 2.93193154h2.9328117V8H36M12 79.9328117h2.93281174V77H12m0 10.9328117h2.93281174V85H12m-4-1.0680685h2.93281174V81H8m8 2.9319315h2.9328117V81H16m133-36.0671883h2.932812V42H149m0 10.9328117h2.932812V50H149m-4-1.0680685h2.932812V46H145m8 2.9319315h2.932812V46H153m37 11.9328117h2.932812V55H190m0 10.9328117h2.932812V63H190m-4-1.0680685h2.932812V59H186m8 2.9319315h2.932812V59H194"/>
    <path fill="#EDEFF2" d="M90.5 50c11.8741221 0 21.5-9.6258779 21.5-21.5s-9.6258779 4.8907933-21.5 4.8907933S69 16.6258779 69 28.5 78.6258779 50 90.5 50z"/>
    <path fill="#14C3A2" d="M102.7933436 46.9036251c-.7276918-6.6409014-3.6151437-11.3069792-8.6623556-13.9982334-3.2622417 1.3053408-6.0404129 1.3053408-8.3345137 0-5.2181909 3.5277509-7.7968337 8.1938287-7.7359284 13.9982334 3.1679605 3.2143422 7.2899178 4.6708361 12.3658718 4.3694816 5.0759541-.3013545 9.1982627-1.7578484 12.3669259-4.3694816z"/>
    <path fill="#455053" d="M76.975452 48.657361c3.9149242 2.6426951 8.4833464 4.0394386 13.2122628 4.0394386 4.7279056 0 9.29653-1.3967435 13.2128691-4.0410556 3.7158226-2.5179787 6.6261427-6.0159012 8.4162381-10.1145649l-2.4516788-1.0707018c-1.2657608 2.8985963-3.1662212 5.457608-5.5548344 7.5080516-.629242-4.8691971-2.8203706-8.1160696-4.6939472-10.0654464-1.164694-1.2113868-2.3301965-2.0625716-3.2294891-2.6206625 1.1907693-1.3635935 1.8697361-3.118922 1.8697361-4.968849V15.4346771l-.1412914-.2825828c-.0885345-.17524983-2.2109376-4.30019087-7.4276024-4.30019087-5.218484 0-7.3408872 4.12494104-7.428411 4.30019087l-.1414936.2825828v11.8880854c0 1.8586187.6650197 3.6044469 1.8721617 4.9680404-.900101.5582931-2.06621 1.4100842-3.2317125 2.6222796-1.8729702 1.9477597-4.0624817 5.1922067-4.6933408 10.066255-4.6048063-3.9565638-7.29500282-9.7323302-7.29500282-15.876182h-2.67584503c0 7.8391466 3.87995508 15.1482987 10.38138125 19.5542055zm8.3175968-32.5443234c.4485346-.6908927 1.9463448-2.58589554 4.8938574-2.58589554 2.9545873 0 4.451589 1.90207744 4.8938574 2.58427854v6.263717c-2.6293543-.2051657-3.4520382-1.002785-3.5563391-1.3652106v-1.9471533l-6.2313757 2.6703874v-5.6201235zm0 8.5314543l4.2163055-1.8066705c.7359686.9617519 2.2913869 1.9976867 5.5714093 2.2188209v2.2669287c0 1.6312184-.8164177 3.1526783-2.1864795 4.0709714-.7998428.5376755-1.7363279.822886-2.7065693.822886-.9712521 0-1.9077373-.2852105-2.6988883-.8172263-.2651993-.1809096-.5257496-.3971926-.7610331-.6324761-.9247614-.9104099-1.4347446-2.1335205-1.4347446-3.444155v-2.6790791zm1.471735 9.4267041c.6569343.3365525 1.3589444.5724424 2.0846042.7020101v5.9029084h2.675845v-5.9029084c.7248512-.1295677 1.4252443-.3648512 2.08137-.6995845 1.5048849.756384 7.2855026 4.2132734 7.6841101 12.7629197-3.3311623 2.0852105-7.1543178 3.1852218-11.1038069 3.1852218-3.949489 0-7.7734531-1.1000113-11.1032004-3.1852218.4018416-8.6042224 6.1493094-12.0087592 7.681078-12.7653453z"/>
    <path fill="#455053" d="M71.31571028 14.94672656l2.1383717 1.60756874C77.4508703 11.23656373 83.5496463 8.1863672 90.1869062 8.1863672c11.5341494 0 20.9175969 9.3834475 20.9175969 20.9175969h2.6752386c0-13.0091185-10.583717-23.59283552-23.5920269-23.59283552-7.4868277 0-14.3650309 3.43869736-18.87200452 9.43559798zM107.548164 29.1031555h-2.6750365c0 2.3750702-.5487929 4.6428074-1.6312185 6.7399439l2.3772937 1.2269511c1.2801123-2.4799775 1.9289613-5.1606737 1.9289613-7.966895z"/>
    <path fill="#455053" d="M80.0359573 18.499023l-1.8460864-1.9360359c-3.4591129 3.2982145-5.363616 7.7522291-5.363616 12.540977h2.6750365c0-4.0505559 1.6099944-7.8169119 4.5346659-10.6049411z"/>
  </g>
</svg>