<svg xmlns="http://www.w3.org/2000/svg" width="150" height="90" xmlns:xlink="http://www.w3.org/1999/xlink">
  <defs>
    <path id="a" d="M75,2.14880294 L75,0 L0,0 L0,99 L38.2577624,99 L38.2577624,97.8443948 L38.2577624,86.6873381 L27.0031483,86.6873381 C26.363789,86.6592892 26.0015949,86.5033446 25.9165661,86.2195044 C25.8315372,85.9356642 26.0605191,85.4079269 26.6035116,84.6362925 L47.1303577,57.0457247 L38.2577624,57.0457247 C37.6643002,56.7853737 37.3675691,56.4080591 37.3675691,55.913781 C37.3675691,55.4195029 37.6643002,54.7902412 38.2577624,54.025996 L75,2.14880294 Z"/>
  </defs>
  <g fill="none" fill-rule="evenodd">
    <g transform="translate(27 -8)">
      <mask id="b" fill="#fff">
        <use xlink:href="#a"/>
      </mask>
      <path fill="#EDEFF2" d="M13 9H69V81H13z" mask="url(#b)"/>
      <path fill="#FFF" d="M5 17L49.1776454 17 61 29.3028655 61 89 5 89" mask="url(#b)"/>
      <path fill="#455053" d="M49.2058052,15 L6,15 L6,15 C4.34314575,15 3,16.3431458 3,18 L3,88 L3,88 C3,89.6568542 4.34314575,91 6,91 L61,91 L61,91 C62.6568542,91 64,89.6568542 64,88 L64,29.7318348 L64,29.7318348 C64,28.9334294 63.6817423,28.1679584 63.11569,27.604899 L51.3214952,15.8730642 L51.3214952,15.8730642 C50.7593501,15.3138914 49.9986995,15 49.2058052,15 Z M51.1533707,19.6127022 L59.2411306,27.6568208 L51.1533707,27.673072 L51.1533707,19.6127022 Z M5.77694547,87.2375176 L5.77694547,18.7613844 L5.77694547,18.7613844 C5.77694547,18.2090996 6.22466072,17.7613844 6.77694547,17.7613844 L47.3773084,17.7613844 L47.3773084,17.7613844 C47.9295931,17.7613844 48.3773084,18.2090996 48.3773084,18.7613844 L48.3773084,29.4386546 L48.3773084,29.4386546 C48.3773084,29.9909393 48.8250236,30.4386546 49.3773084,30.4386546 C49.377958,30.4386546 49.3786077,30.438654 49.3792573,30.4386527 L61.2230545,30.4155698 L61.2230545,87.2375176 L61.2230545,87.2375176 C61.2230545,87.7898023 60.7753393,88.2375176 60.2230545,88.2375176 L6.77694547,88.2375176 L6.77694547,88.2375176 C6.22466072,88.2375176 5.77694547,87.7898023 5.77694547,87.2375176 Z" mask="url(#b)"/>
      <path fill="#455053" d="M11,11 L11,13.4811506 L13.7531996,13.4811506 L13.7531996,11.7409022 L13.7531996,11.7409022 C13.7531996,11.1886174 14.2009148,10.7409022 14.7531996,10.7409022 L66.247676,10.7409022 L66.247676,10.7409022 C66.7999607,10.7409022 67.247676,11.1886174 67.247676,11.7409022 L67.247676,79.2590978 L64.6774685,79.2590978 L64.6774685,82 L70,82 L70,11 L70,11 C70,9.34314575 68.6568542,8 67,8 L40.5,8 L14,8 L14,8 C12.3431458,8 11,9.34314575 11,11 Z" mask="url(#b)"/>
      <path fill="#455053" d="M11 29L43 29 43 26 11 26M11 38L53 38 53 35 11 35M11 46L53 46 53 43 11 43M11 55L53 55 53 52 11 52M11 63L53 63 53 60 11 60M11 71L53 71 53 68 11 68M11 80L53 80 53 77 11 77" mask="url(#b)"/>
    </g>
    <path fill="#0299BC" d="M105.558885 2.6527642L74.0070024 44.4854353 88.4251558 44.4854353 88.4251558 61.366601 97.6784846 74.1358644 89.7829438 74.1358644 89.7829438 88.704042 121.184802 88.704042 121.184802 74.1358644 112.067046 74.1358644 122.819929 59.8422724 122.819929 44.4854353 135.629107 44.4854353"/>
    <path fill="#FFF" d="M121.19771 89.2191738L121.19771 73.9812169 113.139617 73.9812169 130.89581 50.4071653 147.274737 73.9812169 140.38685 73.9812169 140.38685 89.2191738"/>
    <path fill="#14C3A2" d="M71.1977104 89.2191738L71.1977104 73.9812169 63.1396165 73.9812169 80.8958105 50.4071653 97.2747369 73.9812169 90.3868505 73.9812169 90.3868505 89.2191738"/>
    <path fill="#FFF" d="M111.009146,40.1740244 C110.045268,39.707561 109.011146,39.3585366 107.907659,39.1254146 C106.804171,38.8920732 105.770049,38.6589512 104.806171,38.4256098 C103.842512,38.1924878 103.04239,37.8889024 102.404488,37.5159512 C101.767244,37.143 101.448293,36.5520732 101.448293,35.7436098 C101.448293,34.9358049 101.767244,34.3911951 102.404488,34.1117561 C103.04239,33.831439 103.811561,33.6916098 104.712659,33.6916098 C107.784293,33.6916098 110.318122,34.6554878 112.315024,36.5830244 L112.315024,31.2194634 C111.569122,30.3954146 109.750463,29.7893415 106.858171,29.4008049 L106.858171,24.0372439 C106.858171,23.9448293 106.796488,23.8976341 106.672024,23.8976341 L102.614561,23.8976341 C102.48922,23.8976341 102.427537,23.9601951 102.427537,24.084439 L102.427537,29.3544878 C101.463878,29.7120732 100.492317,30.2369268 99.5130732,30.9288293 C98.5338293,31.6198537 97.8340244,32.3780488 97.413878,33.201878 C96.9946098,34.0259268 96.7845366,35.0514878 96.7845366,36.2803171 C96.7845366,37.5082683 97.1034878,38.5577561 97.7407317,39.428122 C98.8699024,40.9697561 100.711829,42.0271463 103.266951,42.5989756 L106.391707,43.2987805 C107.349439,43.5130244 108.148683,43.7847805 108.78922,44.1125122 C109.429756,44.4409024 109.749585,44.9312927 109.749585,45.5839024 C109.749585,46.7481951 109.00961,47.556878 107.527902,48.0088537 C106.91722,48.1956585 105.979244,48.2891707 104.712659,48.2891707 C102.940317,48.2891707 101.339415,47.8690244 99.9092927,47.0296098 C98.4798293,46.1899756 97.3908293,45.0239268 96.6449268,43.5319024 L96.6449268,49.8275122 C98.5724634,50.9997073 100.562561,51.8863171 102.614561,52.4864634 L102.660878,57.2428537 C102.661756,57.3363659 102.708732,57.3826829 102.801366,57.3826829 L106.859049,57.3826829 C106.983293,57.3826829 107.044976,57.3207805 107.044976,57.1965366 L107.044976,52.8122195 C109.687683,51.9326341 111.625756,50.714122 112.857,49.1560244 C113.863683,47.8835122 114.367024,46.6307561 114.367024,45.396878 C114.367024,42.9984878 113.247073,41.2579756 111.009146,40.1740244 Z"/>
    <path fill="#455053" d="M130.44278,48.5473171 L123.550537,57.5481951 L123.550537,46.0999756 L137.979951,46.0999756 L105.254634,0.134560976 L70.6994634,46.0999756 L86.901439,46.0999756 L86.901439,57.2942195 L80.556878,48.5473171 L60,75.392122 L69.6850976,75.392122 L69.6850976,90 L141.259024,90 L141.259024,75.392122 L149.912634,75.392122 L130.44278,48.5473171 Z M88.7809024,87.4077805 L72.2773171,87.4077805 L72.2773171,72.7990244 L65.2511707,72.7990244 L80.5004634,52.8850976 L94.9437073,72.7990244 L88.7800244,72.7990244 L88.7800244,87.4077805 L88.7809024,87.4077805 Z M119.571,87.4077805 L91.373122,87.4077805 L91.373122,75.392122 L100.026732,75.392122 L89.493439,60.8689756 L89.493439,43.5070976 L75.8915854,43.5070976 L105.197122,4.52480488 L132.951805,43.5070976 L120.958317,43.5070976 L120.958317,60.9332927 L109.885902,75.392122 L119.571,75.392122 L119.571,87.4077805 Z M138.666805,72.7990244 L138.666805,87.4077805 L122.16322,87.4077805 L122.16322,72.7990244 L115.137073,72.7990244 L130.386146,52.8850976 L144.82939,72.7990244 L138.666805,72.7990244 Z"/>
    <path fill="#455053" d="M134.366561 77.8787561L134.366561 83.1075366 131.478659 83.1075366 131.478659 85.6997561 136.95878 85.6997561 136.95878 77.8787561M126.224195 85.6995366L128.716098 85.6995366 128.716098 83.1066585 126.224195 83.1066585M146.073585 47.4701707L148.666463 47.4701707 148.666463 44.7177073 146.073585 44.7177073M140.856 20.3226585L143.448878 20.3226585 143.448878 17.5701951 140.856 17.5701951M143.495195 6.61521951L146.087415 6.61521951 146.087415 3.8627561 143.495195 3.8627561M134.169439 30.1366098L136.761659 30.1366098 136.761659 27.3841463 134.169439 27.3841463M125.432634 13.986878L128.024854 13.986878 128.024854 11.2344146 125.432634 11.2344146"/>
    <path fill="#455053" d="M0 43.7524634L2.59287805 43.7524634 2.59287805 41 0 41M5 16.7524634L7.59221951 16.7524634 7.59221951 14 5 14M3 2.75246341L5.59287805 2.75246341 5.59287805 0 3 0M12 26.7524634L14.5922195 26.7524634 14.5922195 24 12 24M21 10.7524634L23.5922195 10.7524634 23.5922195 8 21 8" transform="rotate(180 12 37.5)"/>
    <path fill="#455053" d="M84.2620244 77.8787561L84.2620244 83.1075366 81.374122 83.1075366 81.374122 85.6997561 86.8542439 85.6997561 86.8542439 77.8787561M76.1205366 85.6995366L78.612439 85.6995366 78.612439 83.1066585 76.1205366 83.1066585"/>
  </g>
</svg>
